<?xml version="1.0" encoding="UTF-8" standalone="no"?>
<svg xmlns="http://www.w3.org/2000/svg" version="1.1" viewBox="0 0 640 640" width="640" height="640">
  <defs>
    <path
       d="M313 18.32C150.94 18.32 19.57 149.69 19.57 311.75C19.57 473.81 150.94 605.18 313 605.18C475.06 605.18 606.43 473.81 606.43 311.75C606.43 149.69 475.06 18.32 313 18.32Z"
       id="circle" />
    <path
       d="M481.17 396.22L430.26 415.7L357.45 225.06L337.2 172.32L327.75 147.44L312.81 108.48L244.44 108.48L216.38 108.48L216.38 172.32L268.84 172.32L287.06 219.95L135.28 490.14L208.57 490.14L316.76 297.48L393.42 498.15L411.65 491.2L453.11 475.39L453.11 475.39L503.93 455.91L503.93 455.91L481.17 396.22Z"
       id="lambda" />
  </defs>

  <use href="#circle" style="fill:#000000"/>
  <use href="#lambda" style="fill:#ffffff"/>
</svg>